<svg width="26" height="26" viewBox="0 0 26 26" fill="none" xmlns="http://www.w3.org/2000/svg">
<path d="M14.5359 4.47739C14.916 4.94636 14.9763 5.47287 14.975 6.08486C14.9752 6.14576 14.9753 6.20666 14.9755 6.26756C14.9759 6.43441 14.9759 6.60125 14.9758 6.7681C14.9758 6.94825 14.9762 7.12839 14.9766 7.30854C14.9771 7.66131 14.9773 8.01407 14.9774 8.36684C14.9774 8.65368 14.9776 8.94051 14.9778 9.22735C14.9784 10.0411 14.9787 10.8548 14.9787 11.6685C14.9787 11.7123 14.9787 11.7562 14.9787 11.8013C14.9787 11.8453 14.9787 11.8892 14.9787 11.9344C14.9786 12.6457 14.9793 13.357 14.9803 14.0682C14.9813 14.799 14.9818 15.5298 14.9818 16.2606C14.9817 16.6707 14.9819 17.0808 14.9827 17.491C14.9833 17.8402 14.9835 18.1894 14.983 18.5386C14.9828 18.7166 14.9828 18.8946 14.9834 19.0727C14.984 19.2359 14.9838 19.3992 14.9832 19.5625C14.9831 19.6212 14.9833 19.68 14.9836 19.7388C14.9873 20.3174 14.893 20.8275 14.5391 21.2566C14.2024 21.6222 13.8323 21.7786 13.371 21.7786C12.8199 21.7212 12.4777 21.3815 12.0706 20.9899C11.9384 20.8628 11.8041 20.7396 11.6679 20.6182C11.4897 20.459 11.3137 20.2971 11.1386 20.1333C10.9628 19.9687 10.786 19.8059 10.6071 19.6458C10.4037 19.4636 10.2032 19.2777 10.0033 19.0906C9.85225 18.9495 9.69994 18.8106 9.54629 18.6733C9.33365 18.4832 9.12561 18.2871 8.91795 18.0899C8.72218 17.9044 8.52362 17.7236 8.32298 17.5452C8.30414 17.5273 8.28531 17.5095 8.26591 17.4911C8.19532 17.4271 8.19533 17.4271 8.10187 17.3688C7.96577 17.268 7.83833 17.1709 7.78487 16.9874C7.74681 16.7484 7.75396 16.5054 7.75623 16.2634C7.75559 16.1816 7.75478 16.0999 7.75382 16.0181C7.75174 15.7966 7.75214 15.5753 7.7531 15.3538C7.75368 15.1687 7.75303 14.9835 7.75238 14.7984C7.75087 14.3614 7.75133 13.9245 7.75308 13.4875C7.75486 13.0374 7.75355 12.5873 7.75068 12.1372C7.7483 11.7501 7.74772 11.3631 7.7486 10.976C7.74911 10.745 7.74898 10.5142 7.74718 10.2832C7.74556 10.066 7.74621 9.84887 7.74856 9.63162C7.74905 9.55215 7.74877 9.47266 7.74764 9.3932C7.73937 8.7631 7.73937 8.7631 7.90955 8.55223C8.02084 8.43538 8.14114 8.34289 8.26844 8.25044C8.31348 8.21024 8.35813 8.16946 8.40201 8.12761C8.43759 8.09609 8.47318 8.06456 8.50984 8.03208C8.69112 7.87048 8.87013 7.70602 9.048 7.5395C9.22302 7.37569 9.39909 7.21377 9.5773 7.05454C9.76369 6.8879 9.9467 6.71702 10.1287 6.54419C10.3304 6.35273 10.5339 6.16457 10.7404 5.98004C10.8984 5.83859 11.0542 5.69421 11.2095 5.54888C11.4051 5.36585 11.602 5.18508 11.8015 5.00755C11.9132 4.90777 12.0229 4.80601 12.1311 4.70131C12.8543 4.0039 13.7539 3.65541 14.5359 4.47739Z" fill="#D49858"/>
<path d="M7.09911 9.14419C7.09911 11.6109 7.09911 14.0777 7.09911 16.6192C5.26768 16.6192 5.26768 16.6192 4.68957 16.1317C4.63475 16.0864 4.63475 16.0864 4.57883 16.0403C4.28171 15.7144 4.03428 15.233 4.01277 14.7526C4.01095 14.6547 4.01031 14.5569 4.01004 14.459C4.00981 14.4218 4.00957 14.3846 4.00933 14.3462C4.00864 14.2232 4.00822 14.1003 4.00787 13.9773C4.00772 13.9351 4.00758 13.8929 4.00743 13.8495C4.00669 13.626 4.00619 13.4026 4.00585 13.1791C4.00546 12.9494 4.00424 12.7197 4.00283 12.49C4.0019 12.3125 4.00161 12.1349 4.00148 11.9574C4.00131 11.8728 4.0009 11.7882 4.00024 11.7036C3.99469 10.9457 4.08163 10.3297 4.54644 9.74864C5.25456 9.00057 6.18389 9.14419 7.09911 9.14419Z" fill="#D09556"/>
<mask id="path-3-inside-1_1_13" fill="white">
<path d="M20.4255 7.04905C20.6342 7.29581 20.7912 7.66313 20.9472 7.98931C20.9649 8.02567 20.9826 8.06203 21.0008 8.0995C21.6711 9.50897 22.0026 11.2287 22 12.9795C22 13.0158 21.9999 13.052 21.9999 13.0893C21.9988 13.674 21.9777 14.2355 21.8913 14.8062C21.8853 14.8465 21.8793 14.8867 21.8731 14.9282C21.6594 16.3214 21.1749 18.0789 20.412 18.953C20.3133 19.026 20.2304 19.0027 20.1273 18.959C20.0389 18.8718 20.0298 18.8131 20.0031 18.6529C19.995 18.4747 20.0324 18.3516 20.1025 18.2146C20.1485 18.1396 20.196 18.0674 20.2435 17.9949C21.1062 16.5956 21.4628 14.6247 21.4493 12.718C21.4265 10.9074 20.9381 9.15688 20.1453 7.85739C20.0712 7.73452 20.0194 7.64264 20 7.47266C20.0033 7.31212 20.0119 7.24827 20.0776 7.12741C20.1846 6.97865 20.2959 6.97084 20.4255 7.04905Z"/>
</mask>
<path d="M20.4255 7.04905C20.6342 7.29581 20.7912 7.66313 20.9472 7.98931C20.9649 8.02567 20.9826 8.06203 21.0008 8.0995C21.6711 9.50897 22.0026 11.2287 22 12.9795C22 13.0158 21.9999 13.052 21.9999 13.0893C21.9988 13.674 21.9777 14.2355 21.8913 14.8062C21.8853 14.8465 21.8793 14.8867 21.8731 14.9282C21.6594 16.3214 21.1749 18.0789 20.412 18.953C20.3133 19.026 20.2304 19.0027 20.1273 18.959C20.0389 18.8718 20.0298 18.8131 20.0031 18.6529C19.995 18.4747 20.0324 18.3516 20.1025 18.2146C20.1485 18.1396 20.196 18.0674 20.2435 17.9949C21.1062 16.5956 21.4628 14.6247 21.4493 12.718C21.4265 10.9074 20.9381 9.15688 20.1453 7.85739C20.0712 7.73452 20.0194 7.64264 20 7.47266C20.0033 7.31212 20.0119 7.24827 20.0776 7.12741C20.1846 6.97865 20.2959 6.97084 20.4255 7.04905Z" fill="#D49858"/>
<path d="M20.4255 7.04905L21.1889 6.40318L21.0828 6.27779L20.9422 6.19292L20.4255 7.04905ZM20.9472 7.98931L20.045 8.42074L20.0479 8.42656L20.9472 7.98931ZM21.0008 8.0995L21.9039 7.66997L21.9001 7.66225L21.0008 8.0995ZM22 12.9795L21 12.9781L21 12.9789L22 12.9795ZM21.9999 13.0893L22.9999 13.0913L22.9999 13.0899L21.9999 13.0893ZM21.8913 14.8062L20.9025 14.6566L20.9022 14.6589L21.8913 14.8062ZM21.8731 14.9282L22.8616 15.0798L22.8622 15.0755L21.8731 14.9282ZM20.412 18.953L21.0066 19.757L21.0939 19.6924L21.1654 19.6106L20.412 18.953ZM20.1273 18.959L19.4254 19.6712L19.5612 19.805L19.7366 19.8795L20.1273 18.959ZM20.0031 18.6529L19.0041 18.6986L19.0069 18.7582L19.0167 18.817L20.0031 18.6529ZM20.1025 18.2146L19.2498 17.6923L19.2296 17.7251L19.2121 17.7594L20.1025 18.2146ZM20.2435 17.9949L21.0801 18.5426L21.0876 18.5312L21.0947 18.5197L20.2435 17.9949ZM21.4493 12.718L22.4493 12.7109L22.4492 12.7054L21.4493 12.718ZM20.1453 7.85739L19.289 8.37398L19.2916 8.3782L20.1453 7.85739ZM20 7.47266L19.0002 7.45187L18.9988 7.51917L19.0064 7.58604L20 7.47266ZM20.0776 7.12741L19.2656 6.54379L19.229 6.59473L19.199 6.64984L20.0776 7.12741ZM20.4255 7.04905L19.662 7.69492C19.7635 7.81492 19.8503 8.01347 20.045 8.42073L20.9472 7.98931L21.8493 7.55789C21.7321 7.31279 21.5049 6.7767 21.1889 6.40318L20.4255 7.04905ZM20.9472 7.98931L20.0479 8.42656C20.0655 8.46292 20.0832 8.49928 20.1014 8.53674L21.0008 8.0995L21.9001 7.66225C21.8819 7.62479 21.8642 7.58842 21.8465 7.55206L20.9472 7.98931ZM21.0008 8.0995L20.0977 8.52901C20.6916 9.77769 21.0024 11.3443 21 12.9781L22 12.9795L23 12.981C23.0027 11.113 22.6507 9.24026 21.9038 7.66999L21.0008 8.0995ZM22 12.9795L21 12.9789C21 13.0152 20.9999 13.0514 20.9999 13.0887L21.9999 13.0893L22.9999 13.0899C22.9999 13.0526 23 13.0164 23 12.9801L22 12.9795ZM21.9999 13.0893L20.9999 13.0874C20.9988 13.6516 20.9782 14.1568 20.9025 14.6566L21.8913 14.8062L22.88 14.9558C22.9771 14.3141 22.9987 13.6964 22.9999 13.0913L21.9999 13.0893ZM21.8913 14.8062L20.9022 14.6589C20.8962 14.6992 20.8902 14.7394 20.884 14.7809L21.8731 14.9282L22.8622 15.0755C22.8684 15.034 22.8744 14.9937 22.8804 14.9535L21.8913 14.8062ZM21.8731 14.9282L20.8847 14.7766C20.7846 15.4289 20.6219 16.1589 20.4007 16.8163C20.1728 17.4936 19.9119 18.0052 19.6586 18.2955L20.412 18.953L21.1654 19.6106C21.675 19.0267 22.0378 18.2225 22.2963 17.4542C22.5615 16.666 22.7479 15.8207 22.8616 15.0798L21.8731 14.9282ZM20.412 18.953L19.8174 18.149C19.868 18.1116 19.9415 18.0684 20.0374 18.0379C20.1354 18.0067 20.2318 17.9968 20.3183 18.0009C20.466 18.0078 20.5632 18.0576 20.518 18.0385L20.1273 18.959L19.7366 19.8795C19.7945 19.9041 19.9847 19.9874 20.2243 19.9987C20.5181 20.0125 20.7872 19.9193 21.0066 19.757L20.412 18.953ZM20.1273 18.959L20.8293 18.2468C20.8406 18.258 20.87 18.2884 20.9026 18.3366C20.9375 18.3882 20.9635 18.4413 20.9813 18.49C20.9968 18.5326 21.0022 18.5613 21.0012 18.5566C20.9996 18.5488 20.9973 18.5355 20.9896 18.4888L20.0031 18.6529L19.0167 18.817C19.0239 18.8603 19.0468 19.0233 19.1028 19.1766C19.1806 19.3895 19.2995 19.5472 19.4254 19.6712L20.1273 18.959ZM20.0031 18.6529L21.0021 18.6073C21.0019 18.6031 21.0023 18.6073 21.0014 18.6175C21.0004 18.6283 20.9984 18.6413 20.995 18.6552C20.988 18.684 20.9804 18.6942 20.9929 18.6699L20.1025 18.2146L19.2121 17.7594C19.0799 18.018 18.9865 18.3131 19.0041 18.6986L20.0031 18.6529ZM20.1025 18.2146L20.9552 18.737C20.9916 18.6776 21.0298 18.6196 21.0801 18.5426L20.2435 17.9949L19.4069 17.4471C19.3622 17.5153 19.3053 17.6016 19.2498 17.6923L20.1025 18.2146ZM20.2435 17.9949L21.0947 18.5197C22.0953 16.8968 22.4635 14.7128 22.4493 12.7109L21.4493 12.718L20.4494 12.7251C20.4622 14.5365 20.1172 16.2943 19.3923 17.4701L20.2435 17.9949ZM21.4493 12.718L22.4492 12.7054C22.4244 10.7373 21.896 8.80699 20.999 7.33658L20.1453 7.85739L19.2916 8.3782C19.9801 9.50676 20.4285 11.0775 20.4494 12.7306L21.4493 12.718ZM20.1453 7.85739L21.0015 7.34081C20.993 7.32663 20.9868 7.31624 20.9816 7.30742C20.9766 7.29881 20.9736 7.29349 20.9718 7.29032C20.9686 7.28438 20.9715 7.28912 20.9763 7.30064C20.9786 7.30638 20.9812 7.31304 20.9836 7.32038C20.986 7.32771 20.9881 7.33476 20.9897 7.34125C20.9931 7.35462 20.9938 7.36162 20.9936 7.35927L20 7.47266L19.0064 7.58604C19.0506 7.97248 19.1922 8.21348 19.289 8.37397L20.1453 7.85739ZM20 7.47266L20.9998 7.49344C21.0001 7.47675 21.0005 7.46491 21.0008 7.45603C21.001 7.45175 21.0011 7.44863 21.0013 7.44647C21.0014 7.44432 21.0015 7.44335 21.0015 7.44338C21.0015 7.44343 21.0001 7.46236 20.9939 7.49143C20.9873 7.52282 20.978 7.55263 20.968 7.57804C20.959 7.60065 20.9526 7.61159 20.9562 7.60497L20.0776 7.12741L19.199 6.64984C19.1369 6.76419 19.0739 6.90354 19.0369 7.07888C19.0048 7.23136 19.0019 7.37194 19.0002 7.45187L20 7.47266ZM20.0776 7.12741L20.8897 7.71102C20.8592 7.75345 20.7157 7.93187 20.4275 7.98596C20.1462 8.03875 19.9502 7.93024 19.9087 7.90518L20.4255 7.04905L20.9422 6.19292C20.7711 6.08965 20.4547 5.94594 20.0586 6.02027C19.6556 6.0959 19.403 6.3526 19.2656 6.54379L20.0776 7.12741Z" fill="#D49858" mask="url(#path-3-inside-1_1_13)"/>
<path d="M18.3814 9.03225C18.4361 9.09177 18.4742 9.14062 18.5187 9.21365C18.5307 9.23248 18.5426 9.25131 18.5549 9.27071C19.1642 10.2556 19.5014 11.5675 19.4989 12.9053C19.4988 12.9869 19.4994 13.0685 19.5 13.1501C19.5039 14.5198 19.1157 15.793 18.4995 16.7835C18.4796 16.8193 18.4596 16.8551 18.439 16.8919C18.3604 16.9856 18.2925 17.0111 18.1925 16.9959C18.0961 16.9237 18.043 16.8623 18.0036 16.7127C17.994 16.5766 18.001 16.4458 18.0575 16.3346C18.0852 16.2953 18.1133 16.2567 18.1418 16.2186C18.4525 15.7767 18.6667 15.1521 18.8065 14.5537C18.8155 14.5164 18.8244 14.4792 18.8336 14.4407C19.0985 13.2525 19.0043 11.9541 18.6419 10.8377C18.4935 10.4028 18.2992 9.97599 18.0557 9.64764C17.9973 9.54715 18.0012 9.40795 18.0036 9.28001C18.0335 9.16557 18.0643 9.11604 18.1261 9.03668C18.2153 8.98318 18.2907 8.99395 18.3814 9.03225Z" fill="#D49858"/>
<path d="M16.3284 11.013C16.6079 11.2091 16.8004 11.781 16.8984 12.1526C16.9107 12.2054 16.9224 12.2583 16.9336 12.3115C16.9381 12.3324 16.9426 12.3534 16.9472 12.375C17.0697 13.0557 16.9753 13.8267 16.7026 14.4226C16.4646 14.901 16.4646 14.901 16.3284 14.9912C16.2317 15.0065 16.1618 15.0088 16.078 14.9394C16.0153 14.8512 15.9994 14.775 16 14.6525C16.0246 14.531 16.0887 14.4526 16.1512 14.3619C16.4537 13.9164 16.5346 13.3557 16.5198 12.7733C16.499 12.3341 16.3213 11.8613 16.0874 11.5502C16.0289 11.4697 16.0077 11.4107 16.0036 11.3014C16.0085 11.1848 16.0335 11.122 16.0988 11.0406C16.1734 10.9913 16.2472 10.9933 16.3284 11.013Z" fill="#D49858"/>
</svg>
